<?xml version="1.0" standalone="no"?><!DOCTYPE svg PUBLIC "-//W3C//DTD SVG 1.1//EN" "http://www.w3.org/Graphics/SVG/1.1/DTD/svg11.dtd"><svg t="1773131967855" class="icon" viewBox="0 0 1024 1024" version="1.1" xmlns="http://www.w3.org/2000/svg" p-id="1785" xmlns:xlink="http://www.w3.org/1999/xlink" width="200" height="200"><path d="M557.973333 319.36V277.333333a21.333333 21.333333 0 0 0-21.333333-21.333333H501.333333V142.186667h-42.666666V256h-35.306667a21.333333 21.333333 0 0 0-21.333333 21.333333v42.026667c-189.866667 53.802667-269.44 279.189333-155.498667 440.277333 113.962667 161.109333 352.981333 161.109333 466.944 0 113.962667-161.088 34.346667-386.474667-155.498667-440.277333z m160 253.76H633.173333a533.141333 533.141333 0 0 0-6.506666-65.92c46.72 16.96 79.04 41.066667 91.2 65.92h0.106666z m-127.466666 0H501.333333v-89.173333a464.853333 464.853333 0 0 1 79.146667 9.92 454.186667 454.186667 0 0 1 9.92 79.253333h0.106667zM501.333333 441.173333v-84.586666c24.746667 12.053333 48.853333 44.48 65.92 91.2a516.693333 516.693333 0 0 0-65.92-6.613334z m-42.666666-84.586666v84.586666a516.693333 516.693333 0 0 0-65.92 6.613334c17.066667-46.72 41.173333-79.146667 65.92-91.2z m0 127.36v89.173333h-89.066667a454.186667 454.186667 0 0 1 9.92-79.253333 464.853333 464.853333 0 0 1 79.146667-9.92z m-131.84 89.173333h-84.693334c12.16-24.853333 44.48-48.96 91.2-65.92a533.397333 533.397333 0 0 0-6.506666 65.92z m-84.693334 42.666667h84.693334c0.810667 22.058667 2.986667 44.032 6.506666 65.813333-46.72-16.96-79.04-41.066667-91.2-65.813333z m128 0h88.533334v89.066666a464.853333 464.853333 0 0 1-79.146667-9.92 454.186667 454.186667 0 0 1-9.92-79.146666h0.533333z m88.533334 131.84V832c-24.746667-12.053333-48.853333-44.373333-65.92-91.2a516.48 516.48 0 0 0 65.92 6.826667z m42.666666 84.373333v-84.373333a516.693333 516.693333 0 0 0 65.92-6.613334c-17.066667 46.826667-41.173333 79.146667-65.92 90.986667z m0-127.36v-88.853333h89.066667a454.186667 454.186667 0 0 1-9.92 79.146666 464.853333 464.853333 0 0 1-79.146667 9.92v-0.213333z m131.84-89.066667h84.693334c-12.16 24.746667-44.48 48.853333-91.2 65.813334 3.52-21.717333 5.696-43.626667 6.506666-65.6v-0.213334z m69.76-118.4a312.554667 312.554667 0 0 0-87.146666-38.506666 311.146667 311.146667 0 0 0-38.506667-87.146667 244.48 244.48 0 0 1 125.653333 125.653333zM444.693333 298.666667h70.613334v12.053333a279.36 279.36 0 0 0-70.613334 0V298.666667z m-61.973333 72.853333a311.146667 311.146667 0 0 0-38.506667 87.146667c-30.848 8.32-60.245333 21.290667-87.146666 38.506666a244.48 244.48 0 0 1 125.653333-125.653333z m-125.653333 320a312.64 312.64 0 0 0 87.146666 38.613333 310.4 310.4 0 0 0 38.506667 87.04 244.48 244.48 0 0 1-125.653333-125.546666v-0.106667z m320 125.653333a310.4 310.4 0 0 0 38.506666-87.04 312.64 312.64 0 0 0 87.146667-38.613333 244.48 244.48 0 0 1-125.44 125.76l-0.213333-0.106667z m-325.76-493.44a56.746667 56.746667 0 0 0-5.973334-26.133333v-27.2a70.186667 70.186667 0 0 0 45.653334-2.453333l-15.786667-39.573334a36.373333 36.373333 0 0 1-35.946667-9.066666A21.333333 21.333333 0 0 0 202.666667 234.666667v32a53.333333 53.333333 0 0 0-8.32-0.853334 57.493333 57.493333 0 1 0 57.493333 57.493334l-0.533333 0.426666z m-57.493334 14.72a14.826667 14.826667 0 1 1 0-29.653333 14.826667 14.826667 0 0 1 0 29.653333z m694.613334 451.52l-15.786667-39.68c-12.693333 3.84-26.453333 0.426667-35.84-8.96a21.333333 21.333333 0 0 0-36.8 14.826667V789.333333a69.226667 69.226667 0 0 0-8.213333-0.746666 58.24 58.24 0 1 0 50.88 30.933333v-27.093333c15.104 4.266667 31.189333 3.413333 45.76-2.453334z m-96.533334 70.506667a14.826667 14.826667 0 1 1 0-29.653333 14.826667 14.826667 0 0 1 0 29.653333zM732.373333 244.906667h42.666667v39.466666h-42.666667v-39.466666zM122.346667 757.546667h42.666666v39.466666h-42.666666v-39.466666zM828.373333 394.24h42.666667v39.466667h-42.666667v-39.466667zM229.013333 874.88h42.666667v39.466667h-42.666667v-39.466667z" p-id="1786" fill="#ffffff"></path></svg>